<svg width="19" height="14" viewBox="0 0 19 14" fill="none" xmlns="http://www.w3.org/2000/svg">
<path d="M14.3855 3.84001C12.0148 3.84001 10.8892 5.09639 10.3625 6.15037C10.0106 6.8547 9.87721 7.55357 9.82669 7.9883C9.71982 7.56689 9.52829 7.10876 9.1862 6.74717C9.01471 6.5659 8.81909 6.42219 8.6005 6.3164C9.08785 5.98937 9.56777 5.38471 9.56777 4.27157C9.56777 3.24021 9.2147 2.38904 8.54679 1.81012C7.93529 1.28016 7.09217 1 6.10845 1H0.300022C0.13429 1 0 1.13435 0 1.30002V12.4634C0 12.6291 0.13429 12.7634 0.300022 12.7634H6.10527C6.11247 12.7635 6.12675 12.7638 6.14746 12.7638C6.14752 12.7638 6.14746 12.7638 6.14752 12.7638C6.40397 12.7638 7.30854 12.7291 8.18203 12.2822C8.90328 11.9133 9.74724 11.1765 9.92264 9.72987C10.0632 10.3487 10.3499 11.0841 10.9298 11.7055C11.7281 12.5609 12.8882 12.9953 14.3778 12.9968C14.3993 12.9978 14.4548 13 14.5382 13C14.9143 13 15.8845 12.9548 16.7669 12.5362C17.9038 11.9968 18.5048 11.0256 18.5048 9.72729C18.5048 9.56156 18.3705 9.42727 18.2048 9.42727H16.2406C16.1582 9.42727 16.0794 9.45907 16.0227 9.51884C15.9661 9.5786 15.9364 9.65703 15.9408 9.73923C15.9411 9.75034 15.945 10.0144 15.7188 10.2463C15.475 10.4964 15.0365 10.6286 14.4509 10.6286C14.4449 10.6286 14.4379 10.6289 14.4319 10.6292C14.428 10.6295 14.4104 10.6303 14.382 10.6303C14.2595 10.6303 13.8308 10.613 13.4566 10.3905C13.0813 10.1673 12.8619 9.7963 12.8023 9.28536H18.2711C18.4218 9.28536 18.5491 9.17363 18.5686 9.02422C18.5814 8.92617 18.8667 6.60616 17.5346 5.08877C16.8071 4.26016 15.7476 3.84001 14.3855 3.84001ZM12.8536 7.19618C13.0128 6.76301 13.424 6.07536 14.4293 6.07536C14.8532 6.07536 15.1869 6.19471 15.4211 6.43011C15.6528 6.66304 15.7536 6.97165 15.7974 7.19618H12.8536ZM3.16001 7.79623H6.11013C6.19984 7.79689 6.98644 7.83721 6.98644 9.02908C6.98644 9.8086 6.66439 10.1636 5.94224 10.1798H3.16001V7.79623ZM5.90696 5.47472H3.16001V3.58337L6.10251 3.58325C6.18526 3.58679 6.59809 3.645 6.59809 4.44516C6.59809 5.47472 6.23092 5.47472 5.90696 5.47472Z" fill="#D6D6D6"/>
<path d="M11.9832 3.45138H16.5893C16.755 3.45138 16.8893 3.31703 16.8893 3.15136V1.77707C16.8893 1.6114 16.755 1.47705 16.5893 1.47705H11.9832C11.8174 1.47705 11.6831 1.6114 11.6831 1.77707V3.15136C11.6831 3.31703 11.8175 3.45138 11.9832 3.45138Z" fill="#D6D6D6"/>
</svg>
