<svg width="14" height="14" viewBox="0 0 14 14" fill="none" xmlns="http://www.w3.org/2000/svg">
<path d="M6.72102 5.55352C6.01995 4.3135 5.27061 3.26783 5.11965 3.0603C3.91429 3.63548 3.01156 4.74517 2.72211 6.08058C2.73414 6.08058 2.74846 6.08058 2.76493 6.08058C3.16825 6.08058 4.83937 6.04821 6.72102 5.55352Z" fill="#D6D6D6"/>
<path d="M9.88377 3.72145C9.11295 3.04573 8.1038 2.63525 6.99999 2.63525C6.66055 2.63525 6.33028 2.67435 6.01276 2.74826C6.19064 2.98858 6.93955 4.02294 7.62301 5.27341C9.1002 4.71484 9.76189 3.88816 9.88377 3.72145Z" fill="#D6D6D6"/>
<path d="M8.26581 6.58641C8.2956 6.6563 8.32454 6.72605 8.35304 6.79537C8.69176 6.75369 9.02976 6.73751 9.35087 6.73751C10.3464 6.73751 11.1795 6.89333 11.3762 6.93301C11.3594 5.92572 10.9999 5.00036 10.409 4.26807C10.2562 4.46614 9.51686 5.34195 7.98495 5.97299C8.08335 6.17493 8.17773 6.38002 8.26581 6.58641Z" fill="#D6D6D6"/>
<path d="M7.29988 7.02058C7.348 7.00512 7.39669 6.99094 7.44539 6.97661C7.34112 6.74273 7.22884 6.50856 7.11082 6.27783C5.16801 6.85459 3.28234 6.8997 2.73939 6.8997C2.68926 6.8997 2.65102 6.89942 2.62466 6.89884C2.62381 6.93494 2.6228 6.97103 2.6228 7.00683C2.62295 8.1171 3.03958 9.1314 3.72461 9.90322C3.90951 9.59773 5.1123 7.7271 7.29988 7.02058Z" fill="#D6D6D6"/>
<path d="M7 0C3.134 0 0 3.13414 0 7C0 10.8659 3.134 14 7 14C10.866 14 14 10.8659 14 7C14 3.13414 10.866 0 7 0ZM7 12.1745C4.143 12.1745 1.81878 9.85328 1.81864 7C1.81893 4.14672 4.143 1.8258 7 1.82551C9.857 1.8258 12.1811 4.14672 12.1812 7C12.1811 9.85328 9.857 12.1745 7 12.1745Z" fill="#D6D6D6"/>
<path d="M8.64017 7.53795C9.18456 9.03949 9.42044 10.2709 9.47888 10.6075C10.4373 9.94752 11.1204 8.91589 11.3179 7.72285C11.1517 7.67215 10.436 7.47192 9.52142 7.47192C9.24285 7.47192 8.94566 7.49097 8.64017 7.53795Z" fill="#D6D6D6"/>
<path d="M7.76035 7.7544C5.36252 8.58882 4.45506 10.223 4.33017 10.4683C5.06977 11.0382 5.99556 11.3781 7.00012 11.3781C7.59922 11.3781 8.17054 11.2572 8.69101 11.0386C8.62083 10.6315 8.36603 9.31811 7.76522 7.75269C7.7635 7.75326 7.76192 7.75383 7.76035 7.7544Z" fill="#D6D6D6"/>
</svg>
