<svg width="14" height="14" viewBox="0 0 14 14" fill="none" xmlns="http://www.w3.org/2000/svg">
<g clip-path="url(#clip0)">
<path d="M10.4994 0.0029129L8.68396 0C6.64435 0 5.32626 1.35232 5.32626 3.44538V5.03394H3.50089C3.34315 5.03394 3.21542 5.16181 3.21542 5.31955V7.62118C3.21542 7.77891 3.3433 7.90664 3.50089 7.90664H5.32626V13.7144C5.32626 13.8721 5.45399 13.9999 5.61172 13.9999H7.99331C8.15105 13.9999 8.27878 13.872 8.27878 13.7144V7.90664H10.4131C10.5708 7.90664 10.6985 7.77891 10.6985 7.62118L10.6994 5.31955C10.6994 5.24381 10.6693 5.17128 10.6158 5.11768C10.5623 5.06408 10.4895 5.03394 10.4138 5.03394H8.27878V3.6873C8.27878 3.04005 8.43302 2.71148 9.27616 2.71148L10.4991 2.71104C10.6567 2.71104 10.7845 2.58316 10.7845 2.42558V0.288377C10.7845 0.130935 10.6569 0.00320419 10.4994 0.0029129Z" fill="#D6D6D6"/>
</g>
<defs>
<clipPath id="clip0">
<rect width="14" height="13.9999" fill="white"/>
</clipPath>
</defs>
</svg>
