<svg width="14" height="14" viewBox="0 0 14 14" fill="none" xmlns="http://www.w3.org/2000/svg">
<path d="M3.2588 4.50391H0.44828C0.323544 4.50391 0.222473 4.60502 0.222473 4.72971V13.7587C0.222473 13.8834 0.323544 13.9845 0.44828 13.9845H3.2588C3.38354 13.9845 3.48461 13.8834 3.48461 13.7587V4.72971C3.48461 4.60502 3.38354 4.50391 3.2588 4.50391Z" fill="#D6D6D6"/>
<path d="M1.85459 0.0153809C0.831961 0.0153809 0 0.846439 0 1.86794C0 2.8899 0.831961 3.72127 1.85459 3.72127C2.87641 3.72127 3.7077 2.88985 3.7077 1.86794C3.70774 0.846439 2.87641 0.0153809 1.85459 0.0153809Z" fill="#D6D6D6"/>
<path d="M10.4076 4.27954C9.27879 4.27954 8.44435 4.7648 7.93822 5.31617V4.72975C7.93822 4.60506 7.83715 4.50395 7.71242 4.50395H5.02085C4.89611 4.50395 4.79504 4.60506 4.79504 4.72975V13.7588C4.79504 13.8835 4.89611 13.9846 5.02085 13.9846H7.82523C7.94997 13.9846 8.05104 13.8835 8.05104 13.7588V9.29149C8.05104 7.78613 8.45993 7.19967 9.50929 7.19967C10.6521 7.19967 10.743 8.13984 10.743 9.36895V13.7588C10.743 13.8835 10.844 13.9846 10.9688 13.9846H13.7742C13.8989 13.9846 14 13.8835 14 13.7588V8.80624C14 6.56782 13.5732 4.27954 10.4076 4.27954Z" fill="#D6D6D6"/>
</svg>
