<svg width="14" height="14" viewBox="0 0 14 14" fill="none" xmlns="http://www.w3.org/2000/svg">
<g clip-path="url(#clip0)">
<path d="M5.22296 12.7433C4.61755 12.7433 3.99441 12.6943 3.36754 12.596C2.26343 12.4228 1.14576 11.8452 0.829495 11.6723L0 11.2188L0.898068 10.9235C1.87977 10.6007 2.47695 10.4004 3.21619 10.0868C2.47599 9.72834 1.90551 9.08352 1.6309 8.24997L1.42198 7.61573L1.5933 7.6419C1.43084 7.47815 1.30256 7.31196 1.20312 7.16082C0.849469 6.62367 0.662229 5.96731 0.702069 5.40484L0.741376 4.85124L1.07281 4.97963C0.932995 4.71559 0.831952 4.43361 0.772565 4.13806C0.627836 3.4173 0.748959 2.65157 1.11372 1.98198L1.40243 1.45198L1.78855 1.91575C3.00972 3.3827 4.55645 4.25289 6.39222 4.50763C6.31724 3.99077 6.37342 3.49196 6.55938 3.04485C6.77588 2.52426 7.16104 2.08281 7.67288 1.76814C8.24133 1.41876 8.93069 1.24947 9.61396 1.29144C10.3389 1.33598 10.9971 1.6076 11.5198 2.07747C11.7751 2.01114 11.9632 1.94032 12.2174 1.84462C12.3703 1.78705 12.5438 1.72168 12.7608 1.64691L13.5606 1.37134L13.0391 2.86092C13.0735 2.85804 13.1089 2.85558 13.146 2.85398L14.0001 2.81532L13.4953 3.50521C13.4663 3.54473 13.4589 3.55594 13.4487 3.57143C13.408 3.63274 13.3574 3.709 12.6645 4.6342C12.491 4.86588 12.4044 5.16762 12.4205 5.48399C12.4819 6.68626 12.3344 7.77402 11.9819 8.71695C11.6484 9.60904 11.1316 10.3744 10.4461 10.9919C9.59783 11.7558 8.51616 12.2789 7.231 12.5463C6.60061 12.6775 5.92364 12.7433 5.22296 12.7433Z" fill="#D6D6D6"/>
</g>
<defs>
<clipPath id="clip0">
<rect width="14" height="13.9999" fill="white"/>
</clipPath>
</defs>
</svg>
